<?xml version="1.0" encoding="UTF-8"?><svg id="Layer_1" xmlns="http://www.w3.org/2000/svg" viewBox="0 0 197 100"><defs><style>.cls-1{fill:none;}.cls-2{fill:#dd5f88;}</style></defs><rect class="cls-1" x="-179.66" y="-226.46" width="792" height="1008"/><g><path class="cls-2" d="M15.76,52.79c0,6.33,3.72,12.31,10.6,12.31s10.8-5.71,10.8-12.25-4.06-11.69-10.87-11.69c-6.4,0-10.53,5.57-10.53,11.63m.27-11.21h.14c2.68-3.58,6.67-5.5,11.14-5.5,9.49,0,15.48,8.19,15.48,17.13s-5.85,16.99-15.55,16.99c-4.4,0-8.46-1.93-11.08-5.44h-.14v22.7h-5.5V36.96h5.5v4.61Z"/><path class="cls-2" d="M54.08,52.79c0,6.33,3.72,12.31,10.6,12.31s10.8-5.71,10.8-12.25-4.06-11.69-10.87-11.69c-6.4,0-10.53,5.57-10.53,11.63m26.62,16.51h-5.5v-4.47h-.14c-2.82,3.58-6.6,5.37-11.15,5.37-9.49,0-15.48-8.05-15.48-16.99s5.85-17.13,15.55-17.13c4.4,0,8.39,2.06,11.08,5.5h.14v-4.61h5.5v32.34Z"/><path class="cls-2" d="M81.08,40.47h.14c1.93-2.55,3.58-4.4,7.15-4.4,1.86,0,3.37,.62,4.95,1.51l-2.61,5.02c-1.1-.76-1.86-1.44-3.3-1.44-6.05,0-6.33,7.77-6.33,11.97v16.17h-5.5V36.96h5.5v3.51Z"/><polygon class="cls-2" points="104.81 48.93 116.57 36.96 123.93 36.96 110.1 50.72 126.55 69.3 119.26 69.3 106.25 54.58 104.81 56.02 104.81 69.3 99.3 69.3 99.3 12.54 104.81 12.54 104.81 48.93"/><path class="cls-2" d="M154.96,49.62c-.76-4.68-4.68-8.46-9.49-8.46s-9.15,3.78-9.84,8.46h19.33Zm-19.61,4.68c.07,5.99,4.33,10.8,10.6,10.8,4.68,0,7.71-2.82,9.84-6.67l4.68,2.68c-3.1,5.78-8.32,9.08-14.93,9.08-9.63,0-15.82-7.36-15.82-16.65s5.57-17.47,15.69-17.47,15.89,8.6,15.34,18.23h-25.39Z"/><path class="cls-2" d="M174.22,40.47h.14c1.93-2.55,3.58-4.4,7.15-4.4,1.86,0,3.37,.62,4.95,1.51l-2.61,5.02c-1.1-.76-1.86-1.44-3.3-1.44-6.05,0-6.33,7.77-6.33,11.97v16.17h-5.5V36.96h5.5v3.51Z"/></g><rect class="cls-1" x="-179.66" y="-226.46" width="792" height="1008"/></svg>